<?xml version="1.0" encoding="utf-8"?>
<!-- Generator: Adobe Illustrator 22.0.1, SVG Export Plug-In . SVG Version: 6.00 Build 0)  -->
<svg version="1.1" id="LOGO_4" xmlns="http://www.w3.org/2000/svg" xmlns:xlink="http://www.w3.org/1999/xlink" x="0px" y="0px"
	 viewBox="0 0 1920 1080" style="enable-background:new 0 0 1920 1080;" xml:space="preserve">
<style type="text/css">
	.st0{fill:#505050;}
	.st1{fill:#2CAAFF;}
	.st2{opacity:0.2;clip-path:url(#SVGID_2_);fill:#272425;}
	.st3{opacity:0.2;clip-path:url(#SVGID_4_);fill:#272425;}
	.st4{clip-path:url(#SVGID_6_);fill:#1D487C;}
	.st5{clip-path:url(#SVGID_8_);fill:#1D487C;}
	.st6{clip-path:url(#SVGID_10_);fill:#1D487C;}
</style>
<g>
	<path class="st0" d="M936.9,390.6c7.7,3.3,14.4,7.8,20.1,13.5c5.7,5.7,10.2,12.4,13.5,20.1c3.3,7.7,5,15.8,5,24.5
		c0,8.6-1.7,16.8-5,24.5c-3.3,7.7-7.8,14.4-13.5,20.1c-5.7,5.7-12.4,10.2-20.1,13.5c-7.7,3.3-15.8,5-24.5,5h-22.3l8.8-21.6h13.5
		c5.5,0,10.8-1,15.8-3.2c5-2.1,9.5-5.1,13.5-8.9c3.8-4,6.8-8.4,8.9-13.4c2.1-5,3.2-10.3,3.2-15.9c0-5.5-1.1-10.8-3.2-15.8
		c-2.1-5-5.1-9.5-8.9-13.5c-4-3.8-8.5-6.8-13.5-8.9c-5-2.1-10.3-3.2-15.8-3.2h-30.6v52.2v30.6v21.6h-21.6V385.6h52.2
		C921.1,385.6,929.2,387.3,936.9,390.6z"/>
	<path class="st0" d="M1007.9,407.2v30.6h47l5.4,21.6h-52.4v30.6h63.2v21.6h-84.8V385.6h84.8v21.6H1007.9z"/>
	<path class="st0" d="M1128.7,511.7l-50.4-126.1h23.4l38.4,96l35.7-96h23.1L1152,511.7H1128.7z"/>
	<path class="st0" d="M1283.6,390.6c7.7,3.3,14.4,7.8,20.1,13.5c5.7,5.7,10.2,12.4,13.5,20.1c3.3,7.7,5,15.8,5,24.5
		c0,8.6-1.7,16.8-5,24.5c-3.3,7.7-7.8,14.4-13.5,20.1c-5.7,5.7-12.4,10.2-20.1,13.5c-7.7,3.3-15.8,5-24.5,5h-22.3l8.8-21.6h13.5
		c5.5,0,10.8-1,15.8-3.2c5-2.1,9.5-5.1,13.5-8.9c3.8-4,6.8-8.4,8.9-13.4c2.1-5,3.2-10.3,3.2-15.9c0-5.5-1.1-10.8-3.2-15.8
		c-2.1-5-5.1-9.5-8.9-13.5c-4-3.8-8.5-6.8-13.5-8.9c-5-2.1-10.3-3.2-15.8-3.2h-30.6v52.2v30.6v21.6h-21.6V385.6h52.2
		C1267.8,385.6,1275.9,387.3,1283.6,390.6z"/>
	<path class="st0" d="M1452.9,511.7h-23.8l-9.7-21.6l-9.7-21.6l-25.6-56.6l-25.6,56.6h32.8l9.7,21.6h-52.2l-9.7,21.6h-23.8
		l56.9-126.1h23.8L1452.9,511.7z"/>
	<path class="st0" d="M1526.9,407.2H1490v104.5h-21.6V407.2h-37.1v-21.6h37.1h21.6h36.9V407.2z"/>
</g>
<g>
	<path class="st0" d="M928.4,536.9l-13.1,38.8h-9.9l-8.2-25l-8.2,25h-9.8l-13.1-38.8h9.8l8.2,25.1l8.2-25.1h9.9l8.2,25.1l8.2-25.1
		H928.4z"/>
	<path class="st0" d="M957.9,561h-20.3c0.5,1.2,1.3,2.3,2.3,3.2c1.1,1.1,2.3,1.9,3.6,2.4c1.3,0.5,2.8,0.8,4.3,0.8
		c2.1,0,4-0.5,5.7-1.5l9.7,3.9c-1.9,2.2-4.1,3.9-6.8,5.1c-2.6,1.2-5.5,1.8-8.6,1.8c-2.8,0-5.5-0.5-8-1.6s-4.7-2.5-6.5-4.4
		s-3.3-4-4.4-6.5s-1.6-5.1-1.6-7.9c0-2.8,0.5-5.5,1.6-8s2.5-4.7,4.4-6.5c1.9-1.9,4-3.3,6.5-4.4c2.5-1.1,5.1-1.6,8-1.6
		c2.8,0,5.5,0.5,8,1.6c2.5,1.1,4.7,2.5,6.5,4.4c1.9,1.9,3.3,4,4.4,6.5c1.1,2.5,1.6,5.1,1.6,8c0,1.7-0.2,3.2-0.5,4.7H957.9z
		 M947.7,545.2c-3,0-5.6,1.1-7.9,3.3c-1,1-1.7,2.1-2.3,3.3h20.3c-0.5-1.2-1.3-2.3-2.3-3.3C953.4,546.2,950.8,545.2,947.7,545.2z"/>
	<path class="st0" d="M1027.7,521.3v54.4h-9.3v-19.4c0-3.2-1.1-5.8-3.3-7.9c-2.2-2.2-4.8-3.3-7.8-3.3c-3.1,0-5.7,1.1-7.9,3.3
		s-3.3,4.8-3.3,7.9c0,3.1,1.1,5.7,3.3,7.8c1,1.1,2.2,1.9,3.6,2.4c1.4,0.5,2.8,0.8,4.3,0.8c1.5,0,2.9-0.3,4.1-0.8l3.3,8.3
		c-2.4,1.2-5.1,1.8-8.2,1.8c-2.8,0-5.5-0.5-7.9-1.6c-2.4-1.1-4.5-2.5-6.2-4.4c-1.8-1.9-3.1-4-4.1-6.5c-1-2.5-1.5-5.1-1.5-7.9
		c0-2.8,0.5-5.5,1.5-8c1-2.5,2.4-4.7,4.1-6.5c1.8-1.9,3.8-3.3,6.2-4.4c2.4-1.1,5-1.6,7.9-1.6c2.5,0,4.7,0.4,6.7,1.2
		c2,0.8,3.7,1.8,5.2,2.9v-18.6H1027.7z"/>
	<path class="st0" d="M1062.6,561h-20.3c0.5,1.2,1.3,2.3,2.3,3.2c1.1,1.1,2.3,1.9,3.6,2.4c1.3,0.5,2.8,0.8,4.3,0.8
		c2.1,0,4-0.5,5.7-1.5l9.7,3.9c-1.9,2.2-4.1,3.9-6.8,5.1c-2.6,1.2-5.5,1.8-8.6,1.8c-2.8,0-5.5-0.5-8-1.6s-4.7-2.5-6.5-4.4
		s-3.3-4-4.4-6.5s-1.6-5.1-1.6-7.9c0-2.8,0.5-5.5,1.6-8s2.5-4.7,4.4-6.5c1.9-1.9,4-3.3,6.5-4.4c2.5-1.1,5.1-1.6,8-1.6
		c2.8,0,5.5,0.5,8,1.6c2.5,1.1,4.7,2.5,6.5,4.4c1.9,1.9,3.3,4,4.4,6.5c1.1,2.5,1.6,5.1,1.6,8c0,1.7-0.2,3.2-0.5,4.7H1062.6z
		 M1052.4,545.2c-3,0-5.6,1.1-7.9,3.3c-1,1-1.7,2.1-2.3,3.3h20.3c-0.5-1.2-1.3-2.3-2.3-3.3C1058.2,546.2,1055.5,545.2,1052.4,545.2z
		"/>
	<path class="st0" d="M1116.9,536.9l-18,38.8h-10.2l-18-38.8h10.2l12.9,27.8l12.9-27.8H1116.9z"/>
	<path class="st0" d="M1145.4,561h-20.3c0.5,1.2,1.3,2.3,2.3,3.2c1.1,1.1,2.3,1.9,3.6,2.4c1.3,0.5,2.8,0.8,4.3,0.8
		c2.1,0,4-0.5,5.7-1.5l9.7,3.9c-1.9,2.2-4.1,3.9-6.8,5.1c-2.6,1.2-5.5,1.8-8.6,1.8c-2.8,0-5.5-0.5-8-1.6s-4.7-2.5-6.5-4.4
		s-3.3-4-4.4-6.5s-1.6-5.1-1.6-7.9c0-2.8,0.5-5.5,1.6-8s2.5-4.7,4.4-6.5c1.9-1.9,4-3.3,6.5-4.4c2.5-1.1,5.1-1.6,8-1.6
		c2.8,0,5.5,0.5,8,1.6c2.5,1.1,4.7,2.5,6.5,4.4c1.9,1.9,3.3,4,4.4,6.5c1.1,2.5,1.6,5.1,1.6,8c0,1.7-0.2,3.2-0.5,4.7H1145.4z
		 M1135.2,545.2c-3,0-5.6,1.1-7.9,3.3c-1,1-1.7,2.1-2.3,3.3h20.3c-0.5-1.2-1.3-2.3-2.3-3.3C1141,546.2,1138.4,545.2,1135.2,545.2z"
		/>
	<path class="st0" d="M1160,575.7v-54.3h9.3v54.3H1160z"/>
	<path class="st0" d="M1194.1,535.8c2.8,0,5.5,0.5,8,1.6c2.5,1.1,4.7,2.5,6.5,4.4c1.9,1.9,3.3,4,4.4,6.5c1.1,2.5,1.6,5.1,1.6,8
		c0,2.8-0.5,5.4-1.6,7.9c-1.1,2.5-2.5,4.7-4.4,6.5s-4,3.3-6.5,4.4s-5.1,1.6-8,1.6c-2.8,0-5.5-0.5-8-1.6s-4.7-2.5-6.5-4.4
		s-3.3-4-4.4-6.5s-1.6-5.1-1.6-7.9c0-2.8,0.5-5.5,1.6-8s2.5-4.7,4.4-6.5c1.9-1.9,4-3.3,6.5-4.4
		C1188.6,536.4,1191.2,535.8,1194.1,535.8z M1194.1,545.2c-3.1,0-5.7,1.1-7.9,3.3s-3.3,4.8-3.3,7.9c0,3.1,1.1,5.7,3.3,7.8
		c1,1.1,2.2,1.9,3.6,2.4c1.4,0.5,2.8,0.8,4.3,0.8c1.5,0,2.9-0.3,4.3-0.8c1.3-0.5,2.6-1.4,3.6-2.4c2.2-2.2,3.3-4.8,3.3-7.8
		c0-3.1-1.1-5.7-3.3-7.9C1199.7,546.2,1197.1,545.2,1194.1,545.2z"/>
	<path class="st0" d="M1240.1,535.8c2.8,0,5.5,0.5,7.9,1.6c2.4,1.1,4.5,2.5,6.2,4.4c1.8,1.9,3.1,4,4.1,6.5c1,2.5,1.5,5.1,1.5,8
		c0,2.8-0.5,5.4-1.5,7.9c-1,2.5-2.4,4.7-4.1,6.5s-3.8,3.3-6.2,4.4c-2.4,1.1-5,1.6-7.9,1.6c-3.2,0-5.9-0.6-8.3-1.8l3.3-8.3
		c1.2,0.5,2.6,0.8,4.2,0.8c1.5,0,2.9-0.3,4.3-0.8c1.3-0.5,2.6-1.4,3.6-2.4c2.2-2.2,3.3-4.8,3.3-7.8c0-3.1-1.1-5.7-3.3-7.9
		c-2.3-2.2-4.9-3.3-7.9-3.3c-3.1,0-5.7,1.1-7.9,3.3s-3.3,4.8-3.3,7.9v16.3v18.6h-9.3v-54.4h9.3v3.1c1.5-1.2,3.2-2.2,5.2-2.9
		C1235.3,536.2,1237.6,535.8,1240.1,535.8z"/>
	<path class="st0" d="M1293.6,561h-20.3c0.5,1.2,1.3,2.3,2.3,3.2c1.1,1.1,2.3,1.9,3.6,2.4c1.3,0.5,2.8,0.8,4.3,0.8
		c2.1,0,4-0.5,5.7-1.5l9.7,3.9c-1.9,2.2-4.1,3.9-6.8,5.1c-2.6,1.2-5.5,1.8-8.6,1.8c-2.8,0-5.5-0.5-8-1.6s-4.7-2.5-6.5-4.4
		s-3.3-4-4.4-6.5s-1.6-5.1-1.6-7.9c0-2.8,0.5-5.5,1.6-8s2.5-4.7,4.4-6.5c1.9-1.9,4-3.3,6.5-4.4c2.5-1.1,5.1-1.6,8-1.6
		c2.8,0,5.5,0.5,8,1.6c2.5,1.1,4.7,2.5,6.5,4.4c1.9,1.9,3.3,4,4.4,6.5c1.1,2.5,1.6,5.1,1.6,8c0,1.7-0.2,3.2-0.5,4.7H1293.6z
		 M1283.4,545.2c-3,0-5.6,1.1-7.9,3.3c-1,1-1.7,2.1-2.3,3.3h20.3c-0.5-1.2-1.3-2.3-2.3-3.3C1289.1,546.2,1286.5,545.2,1283.4,545.2z
		"/>
	<path class="st0" d="M1347.9,521.3v54.4h-9.3v-19.4c0-3.2-1.1-5.8-3.3-7.9c-2.2-2.2-4.8-3.3-7.8-3.3c-3.1,0-5.7,1.1-7.9,3.3
		s-3.3,4.8-3.3,7.9c0,3.1,1.1,5.7,3.3,7.8c1,1.1,2.2,1.9,3.6,2.4c1.4,0.5,2.8,0.8,4.3,0.8c1.5,0,2.9-0.3,4.1-0.8l3.3,8.3
		c-2.4,1.2-5.1,1.8-8.2,1.8c-2.8,0-5.5-0.5-7.9-1.6c-2.4-1.1-4.5-2.5-6.2-4.4c-1.8-1.9-3.1-4-4.1-6.5c-1-2.5-1.5-5.1-1.5-7.9
		c0-2.8,0.5-5.5,1.5-8c1-2.5,2.4-4.7,4.1-6.5c1.8-1.9,3.8-3.3,6.2-4.4c2.4-1.1,5-1.6,7.9-1.6c2.5,0,4.7,0.4,6.7,1.2
		c2,0.8,3.7,1.8,5.2,2.9v-18.6H1347.9z"/>
	<path class="st0" d="M1389.3,575.7h-8.5c-1.8,0-3.4-0.3-5-1c-1.6-0.7-2.9-1.6-4-2.8c-1.1-1.2-2-2.5-2.7-4.1c-0.7-1.6-1-3.2-1-5
		v-33.8l9.3-2.3v14.8h5.4l2.3,9.3h-7.8v12c0,1,0.3,1.8,1,2.5c0.7,0.7,1.5,1,2.4,1h6.2L1389.3,575.7z"/>
	<path class="st0" d="M1412.4,535.8c2.5,0,4.8,0.5,6.9,1.4c2.1,1,3.8,2.3,5.3,4c1.5,1.7,2.6,3.6,3.4,5.9c0.8,2.2,1.2,4.6,1.2,7.1
		v21.5h-9.3v-21.5c0-1.2-0.2-2.4-0.7-3.5c-0.5-1.1-1.1-2.1-2-2.9c-1.8-1.8-3.9-2.6-6.4-2.6c-2.5,0-4.7,0.9-6.4,2.6
		c-1.8,1.8-2.6,3.9-2.6,6.4v21.5h-9.3v-54.3h9.3V540c1.4-1.2,3-2.3,4.7-3S1410.2,535.8,1412.4,535.8z"/>
	<path class="st0" d="M1473.7,536.9v38.9h-9.3v-19.4c0-3.1-1.1-5.7-3.3-7.9c-2.2-2.2-4.8-3.3-7.9-3.3c-1.5,0-2.9,0.3-4.3,0.9
		c-1.4,0.6-2.6,1.4-3.6,2.4c-2.2,2.2-3.3,4.8-3.3,7.9c0,3.1,1.1,5.7,3.3,7.8c1,1.1,2.2,1.9,3.6,2.4c1.4,0.5,2.8,0.8,4.3,0.8
		c1.6,0,2.9-0.3,4.2-0.8l3.3,8.3c-2.4,1.2-5.1,1.8-8.3,1.8c-2.8,0-5.5-0.5-7.9-1.6c-2.4-1.1-4.5-2.5-6.2-4.4c-1.8-1.9-3.1-4-4.1-6.5
		c-1-2.5-1.5-5.1-1.5-7.9c0-2.8,0.5-5.5,1.5-8c1-2.5,2.4-4.7,4.1-6.5c1.8-1.9,3.8-3.3,6.2-4.4c2.4-1.1,5-1.6,7.9-1.6
		c2.5,0,4.8,0.4,6.8,1.2c2,0.8,3.7,1.8,5.2,2.9v-3.1H1473.7z"/>
	<path class="st0" d="M1499.6,575.7h-8.5c-1.8,0-3.4-0.3-5-1c-1.6-0.7-2.9-1.6-4-2.8c-1.1-1.2-2-2.5-2.7-4.1c-0.7-1.6-1-3.2-1-5
		v-33.8l9.3-2.3v14.8h5.4l2.3,9.3h-7.8v12c0,1,0.3,1.8,1,2.5c0.7,0.7,1.5,1,2.4,1h6.2L1499.6,575.7z"/>
</g>
<circle class="st1" cx="603.4" cy="481.3" r="197.1"/>
<g>
	<g>
		<defs>
			<path id="SVGID_1_" d="M747.5,480.8c0-79.7-66.2-144.3-147.9-144.3c-81.7,0-147.9,64.6-147.9,144.3
				c0,79.7,66.2,144.3,147.9,144.3C681.3,625.1,747.5,560.5,747.5,480.8z"/>
		</defs>
		<clipPath id="SVGID_2_">
			<use xlink:href="#SVGID_1_"  style="overflow:visible;"/>
		</clipPath>
		<path class="st2" d="M470.4,548.2c0,0,65.5,69.4,217.2,49.3c37.5,0,52.4-3.7,52.4-3.7s-4.4-49.2-10-45.5
			c-5.6,3.7-196-0.2-274.7-38.5C427.3,561,470.4,548.2,470.4,548.2z"/>
	</g>
	<g>
		<defs>
			<path id="SVGID_3_" d="M747.5,480.8c0-79.7-66.2-144.3-147.9-144.3c-81.7,0-147.9,64.6-147.9,144.3
				c0,79.7,66.2,144.3,147.9,144.3C681.3,625.1,747.5,560.5,747.5,480.8z"/>
		</defs>
		<clipPath id="SVGID_4_">
			<use xlink:href="#SVGID_3_"  style="overflow:visible;"/>
		</clipPath>
		<path class="st3" d="M457.3,449.6c0,0,91.9,59.6,292.2,41.3c3.7-11-4.1-40.2-4.1-40.2s-175.8,0.7-267.5-44.9
			C449.8,413.1,459.1,424,457.3,449.6z"/>
	</g>
	<g>
		<defs>
			<path id="SVGID_5_" d="M747.5,480.8c0-79.7-66.2-144.3-147.9-144.3c-81.7,0-147.9,64.6-147.9,144.3
				c0,79.7,66.2,144.3,147.9,144.3C681.3,625.1,747.5,560.5,747.5,480.8z"/>
		</defs>
		<clipPath id="SVGID_6_">
			<use xlink:href="#SVGID_5_"  style="overflow:visible;"/>
		</clipPath>
		<path class="st4" d="M449.8,550c5.6,0,82.4-29.2,159.2,96.8c44.9-11,44.9-11,44.9-11s-67.4-155.2-221-127.8
			C429.2,539.1,449.8,550,449.8,550z"/>
	</g>
	<g>
		<defs>
			<path id="SVGID_7_" d="M747.5,480.8c0-79.7-66.2-144.3-147.9-144.3c-81.7,0-147.9,64.6-147.9,144.3
				c0,79.7,66.2,144.3,147.9,144.3C681.3,625.1,747.5,560.5,747.5,480.8z"/>
		</defs>
		<clipPath id="SVGID_8_">
			<use xlink:href="#SVGID_7_"  style="overflow:visible;"/>
		</clipPath>
		<path class="st5" d="M434.8,449.6c0,0,179.8-23.7,265.9,171.7c50.6-42,43.1-49.3,43.1-49.3s-95.5-193.6-294-168
			C416.1,422.2,434.8,449.6,434.8,449.6z"/>
	</g>
	<g>
		<defs>
			<path id="SVGID_9_" d="M747.5,480.8c0-79.7-66.2-144.3-147.9-144.3c-81.7,0-147.9,64.6-147.9,144.3
				c0,79.7,66.2,144.3,147.9,144.3C681.3,625.1,747.5,560.5,747.5,480.8z"/>
		</defs>
		<clipPath id="SVGID_10_">
			<use xlink:href="#SVGID_9_"  style="overflow:visible;"/>
		</clipPath>
		<path class="st6" d="M496.6,369.3c0,0,155.4-16.4,256.6,131.5C755,486.1,755,466,755,466s-73-137-224.7-115
			C517.2,352.8,496.6,369.3,496.6,369.3z"/>
	</g>
</g>
</svg>
